<svg xmlns="http://www.w3.org/2000/svg" width="512" height="512" viewBox="0 0 512 512" fill="none">
  <rect width="512" height="512" rx="120" fill="#020617" />
  <rect width="512" height="512" rx="120" fill="url(#grad)" opacity="0.4" />
  <path
    d="M164 360c36 28 76 42 124 42 74 0 118-36 118-92 0-48-32-78-98-88l-28-4c-32-4-44-12-44-26 0-16 14-28 46-28 32 0 58 10 84 28l44-68c-36-26-76-40-122-40-74 0-118 34-118 90 0 54 34 84 104 94l26 4c30 4 40 10 40 24 0 16-14 28-48 28-38 0-70-12-96-34l-52 70Z"
    fill="#ECFDF5"
  />
  <defs>
    <linearGradient id="grad" x1="40" y1="40" x2="472" y2="472" gradientUnits="userSpaceOnUse">
      <stop offset="0%" stop-color="#34D399" />
      <stop offset="100%" stop-color="#06B6D4" />
    </linearGradient>
  </defs>
</svg>
